# xmcd CD database file
# Copyright (C) 1993-1998 Ti Kan
#
# Track frame offsets:
# 	150
# 	11682
# 	26225
# 	38645
# 	51260
# 	66637
# 	77060
# 	90002
# 	101552
# 	114812
# 	127885
# 	143622
#
# Disc length: 2093 seconds
#
# Revision: 1
# Processed by: cddbd v1.4b41PL1 Copyright (c) Steve Scherf et al.
# Submitted via: DiscPlay 3.4.1
#
DISCID=90082b0c
DTITLE=Arne Benoni - AS FOR ME
DYEAR=1900
DGENRE=
TTITLE0=By the year 2050
TTITLE1=For cryin' out loud
TTITLE2=She's gone to Houston
TTITLE3=Sue Anna's eyes
TTITLE4=Detroit City
TTITLE5=I'm a working man
TTITLE6=As for me
TTITLE7=If it Wasn't for love
TTITLE8=You lay a whole lot of love on me
TTITLE9=One night in Dallas
TTITLE10=I'm up against a heartache
TTITLE11=I'm going out of my mind
EXTD=
EXTT0=
EXTT1=
EXTT2=
EXTT3=
EXTT4=
EXTT5=
EXTT6=Duet with Dottie West
EXTT7=
EXTT8=
EXTT9=
EXTT10=
EXTT11=
PLAYORDER=
